<svg width="91" height="41" viewBox="0 0 91 41" fill="none" xmlns="http://www.w3.org/2000/svg">
<path d="M18.6263 16.1316L14.6611 14.0258V8.52836C14.8757 8.35449 15.0988 8.1892 15.3263 8.03035L18.6284 5.72705V16.1316H18.6263Z" fill="#DBA751"/>
<path d="M31.29 11.3147V18.2117L28.889 16.9388V11.6946L28.1251 11.2889L24.8315 13.2681V24.1878L22.4306 25.6325V11.9071C24.057 10.9304 26.6425 9.37631 28.3955 8.32233C28.2667 8.22359 28.1337 8.12914 27.9985 8.03683L21.6109 3.6449L21.0273 4.05275V25.6819L18.6263 24.4089V18.8557L14.6612 16.7499V23.7521C16.4721 24.7137 19.8708 26.5169 21.656 27.4657C23.5356 26.3344 26.9793 24.263 28.889 23.1167V19.549L31.29 20.822V24.4733C28.4234 26.197 24.5891 28.5025 21.7311 30.2219C18.8881 28.715 15.1096 26.7079 12.258 25.1924V11.0442C10.6745 13.2273 9.79053 15.8805 9.79053 18.6496V25.5445C13.7385 27.6267 17.9891 29.872 21.6431 31.7997C25.3229 29.5736 29.6314 26.972 33.6073 24.5678V18.7076C33.6073 16.0286 32.779 13.457 31.29 11.3147ZM31.9444 20.588L28.138 18.568V17.1169L31.9444 19.1369V20.588Z" fill="#DBA751"/>
<path d="M38.9136 26.9827C37.2207 28.0045 35.4312 29.0864 33.6095 30.1898C29.6186 32.6025 25.4582 35.1162 21.7591 37.3551C18.0192 35.3802 13.8202 33.1671 9.79282 31.042C7.96902 30.0781 6.18169 29.1336 4.48877 28.2385C5.07882 27.1158 6.2246 26.4761 7.41115 26.4761C7.93039 26.4761 8.45608 26.5985 8.94958 26.8582C9.23066 27.0064 9.51174 27.1545 9.79497 27.3047C13.743 29.3869 17.9935 31.6323 21.6475 33.5599C25.3273 31.3339 29.6358 28.7322 33.6117 26.328C33.8692 26.1713 34.1267 26.0146 34.382 25.8622C35.944 24.9177 37.9738 25.42 38.9157 26.9827H38.9136Z" fill="#DBA751"/>
<path d="M42.647 18.3769C42.7049 18.0957 42.7328 17.8274 42.7328 17.5741V10.0632C42.7328 9.80987 42.7049 9.54584 42.647 9.26893C42.589 8.99202 42.4925 8.73872 42.353 8.50903H46.1594C46.0242 8.73872 45.9277 8.99202 45.8719 9.26893C45.8161 9.54584 45.7882 9.80987 45.7882 10.0632V13.7918H48.5668V10.0632C48.5668 9.80987 48.5368 9.54584 48.4789 9.26893C48.4188 8.99202 48.3201 8.73872 48.1785 8.50903H52.002C51.8647 8.73872 51.766 8.99202 51.7081 9.26893C51.6501 9.54584 51.6222 9.80987 51.6222 10.0632V17.5741C51.6222 17.8274 51.6501 18.0957 51.7081 18.3769C51.766 18.6581 51.8626 18.9093 52.002 19.1282H48.1785C48.3201 18.9093 48.4209 18.6603 48.4789 18.3769C48.5389 18.0957 48.5668 17.8274 48.5668 17.5741V14.5345H45.7882V17.5741C45.7882 17.8274 45.8161 18.0957 45.8719 18.3769C45.9277 18.6581 46.0242 18.9093 46.1594 19.1282H42.353C42.4903 18.9093 42.589 18.6603 42.647 18.3769Z" fill="#DBA751"/>
<path d="M57.0396 11.6366C57.443 11.6366 57.8399 11.7053 58.2304 11.8448C58.6209 11.9822 58.9685 12.1797 59.2754 12.4309C59.58 12.6842 59.8268 12.9911 60.0178 13.3539C60.2066 13.7167 60.3031 14.1288 60.3031 14.5882V17.5763C60.3031 17.8295 60.331 18.0979 60.389 18.3791C60.4469 18.6603 60.5434 18.9114 60.6829 19.1304H57.8185V16.4708H57.6468C57.6125 16.8507 57.5438 17.207 57.4387 17.5419C57.3357 17.8768 57.1855 18.1644 56.9902 18.4048C56.795 18.6474 56.5482 18.8363 56.2478 18.9737C55.9496 19.1111 55.587 19.1798 55.16 19.1798C54.8382 19.1798 54.5163 19.1433 54.1945 19.0681C53.8726 18.993 53.5851 18.8749 53.3319 18.7139C53.0787 18.553 52.8749 18.3469 52.7183 18.0914C52.5638 17.8381 52.4844 17.5398 52.4844 17.1942C52.4844 16.8035 52.5638 16.4686 52.7268 16.1917C52.8878 15.9148 53.1002 15.6851 53.3662 15.5005C53.6302 15.3159 53.9327 15.1699 54.2717 15.0604C54.6107 14.951 54.9583 14.8672 55.3166 14.8093C55.6728 14.7513 56.0268 14.7148 56.3787 14.6977C56.7285 14.6805 57.0439 14.6719 57.3185 14.6719C57.3185 14.0623 57.1812 13.5578 56.9044 13.1607C56.6276 12.7636 56.2779 12.491 55.8509 12.3407L53.2439 14.1009V11.6838C53.9005 11.6838 54.5356 11.6753 55.1514 11.6581C55.7672 11.6409 56.3959 11.6323 57.0417 11.6323L57.0396 11.6366ZM57.3164 15.1592C57.0739 15.1592 56.8336 15.2128 56.5912 15.3223C56.3487 15.4318 56.1298 15.5906 55.9346 15.7967C55.7393 16.0049 55.5806 16.2539 55.4604 16.548C55.3402 16.8421 55.2802 17.1663 55.2802 17.5226C55.2802 17.7866 55.3467 18.0142 55.4776 18.2052C55.6106 18.3941 55.7737 18.4907 55.9689 18.4907C56.2672 18.4907 56.5075 18.3576 56.6856 18.0936C56.8636 17.8295 56.9988 17.5183 57.0911 17.162C57.1833 16.8056 57.2434 16.4407 57.2713 16.065C57.2992 15.6915 57.3142 15.3889 57.3142 15.1592H57.3164Z" fill="#DBA751"/>
<path d="M63.9081 14.3628H64.0798C64.1141 13.8219 64.1956 13.3732 64.3222 13.0169C64.4488 12.6606 64.6097 12.3772 64.805 12.1711C65.0002 11.9629 65.2255 11.817 65.4787 11.7311C65.7319 11.6452 66.0023 11.6023 66.2898 11.6023C66.7961 11.6023 67.2596 11.6967 67.678 11.8856C68.0986 12.0745 68.4569 12.3386 68.7573 12.6777C69.0555 13.0169 69.2873 13.4162 69.4482 13.8755C69.6091 14.3349 69.6906 14.8394 69.6906 15.391C69.6906 15.9084 69.622 16.3956 69.4825 16.855C69.3452 17.3144 69.1392 17.7158 68.8688 18.0614C68.5985 18.4049 68.2595 18.6796 67.8497 18.8793C67.442 19.081 66.9721 19.1798 66.4421 19.1798C65.9121 19.1798 65.5045 19.0682 65.1826 18.8428C64.8608 18.6174 64.6011 18.3104 64.4059 17.9197V20.6996C64.4059 20.9529 64.4338 21.2169 64.4917 21.4938C64.5497 21.7707 64.6462 22.024 64.7857 22.2537H60.9707C61.108 22.024 61.2067 21.7707 61.2647 21.4938C61.3226 21.2169 61.3505 20.9529 61.3505 20.6996V13.6931C61.3505 13.4398 61.3226 13.1758 61.2647 12.8988C61.2067 12.6219 61.1102 12.3708 60.9707 12.1389L63.9038 11.7032V14.3628H63.9081ZM65.91 18.4886C66.0816 18.4886 66.2254 18.4177 66.3413 18.2739C66.4571 18.1301 66.5515 17.939 66.6266 17.6965C66.7017 17.4561 66.7554 17.177 66.7897 16.8615C66.824 16.5459 66.8412 16.2153 66.8412 15.8719C66.8412 15.4469 66.809 15.0218 66.7468 14.5989C66.6824 14.1739 66.5945 13.7897 66.4786 13.4441C66.3627 13.1006 66.2254 12.8216 66.0645 12.609C65.9036 12.3965 65.7255 12.2914 65.5302 12.2914C65.3586 12.2914 65.2084 12.3751 65.0818 12.5404C64.9552 12.7078 64.8522 12.9246 64.7706 13.1951C64.6891 13.4655 64.6333 13.7747 64.599 14.1245C64.5647 14.4744 64.5475 14.8394 64.5475 15.2172C64.5475 15.6186 64.5797 16.0157 64.6419 16.4042C64.7041 16.7949 64.7943 17.1448 64.9101 17.4539C65.026 17.763 65.1654 18.0142 65.3328 18.2031C65.5002 18.392 65.6911 18.4864 65.91 18.4864V18.4886Z" fill="#DBA751"/>
<path d="M73.5654 19.1541C73.2843 19.1712 73.0247 19.1798 72.7844 19.1798C72.4647 19.1798 72.1643 19.1219 71.8832 19.0081C71.6021 18.8922 71.3597 18.729 71.1537 18.5165C70.9477 18.304 70.7868 18.0443 70.6731 17.7395C70.5593 17.4346 70.5014 17.0912 70.5014 16.7112V12.4288H70.0015V11.686C70.8275 11.686 71.5034 11.4864 72.0291 11.0893C72.5548 10.6922 72.9453 10.1663 73.1963 9.5094H73.5568V11.6839H74.6618V12.5297L73.5568 12.4266V16.5009C73.5568 16.8014 73.5225 17.059 73.4538 17.2779C73.3852 17.4969 73.2972 17.6772 73.1878 17.821C73.0783 17.9648 72.956 18.0765 72.8187 18.158C72.6814 18.2396 72.5376 18.2954 72.3896 18.3298V18.4843C72.5612 18.4843 72.7479 18.45 72.9474 18.3813C73.147 18.3126 73.3508 18.2096 73.5568 18.07C73.7628 17.9326 73.9623 17.7674 74.1512 17.5785C74.34 17.3896 74.5116 17.1728 74.6597 16.9302L74.3486 19.1219C74.1061 19.1219 73.8443 19.1304 73.5654 19.1476V19.1541Z" fill="#DBA751"/>
<path d="M75.5741 13.6909C75.5741 13.4376 75.5462 13.1736 75.4883 12.8967C75.4304 12.6198 75.3338 12.3665 75.1943 12.1368L78.6295 11.6882V17.5763C78.6295 17.8296 78.6574 18.0979 78.7153 18.3791C78.7733 18.6603 78.8698 18.9115 79.0093 19.1304H75.1943C75.3317 18.9115 75.4304 18.6625 75.4883 18.3791C75.5462 18.0979 75.5741 17.8296 75.5741 17.5763V13.6909ZM75.3853 9.49649C75.7179 9.23246 76.0204 8.96199 76.2908 8.68508C76.5611 8.40817 76.8293 8.10335 77.0932 7.77063C77.37 8.1055 77.6425 8.41032 77.9129 8.68508C78.1832 8.96199 78.4858 9.23246 78.8183 9.49649C78.4836 9.76053 78.1832 10.031 77.9129 10.3079C77.6425 10.5848 77.37 10.8896 77.0932 11.2224C76.8293 10.8896 76.5611 10.5827 76.2908 10.3079C76.0204 10.031 75.7179 9.76053 75.3853 9.49649Z" fill="#DBA751"/>
<path d="M83.7723 11.6366C84.1413 11.6366 84.5318 11.6452 84.946 11.6624C85.3601 11.6795 85.757 11.6881 86.1368 11.6881L85.8085 14.1052L83.7036 12.3278C83.1865 12.4652 82.8067 12.8022 82.5643 13.3388C82.3218 13.8734 82.2017 14.5044 82.2017 15.23C82.2017 15.6786 82.2553 16.0972 82.3647 16.4815C82.4742 16.8679 82.6265 17.2006 82.8218 17.4839C83.017 17.7651 83.2466 17.9841 83.5127 18.1408C83.7766 18.2953 84.0598 18.3748 84.358 18.3748C84.6906 18.3748 85.0146 18.2503 85.3236 18.0034C85.6347 17.7565 85.9222 17.4024 86.1861 16.9408L85.9265 19.1325C85.5575 19.1325 85.1948 19.1411 84.8387 19.1583C84.4825 19.1754 84.1199 19.184 83.7508 19.184C82.9913 19.184 82.3347 19.0746 81.7833 18.8556C81.2318 18.6366 80.7727 18.3533 80.4122 18.0013C80.0496 17.6514 79.7814 17.2478 79.6097 16.7927C79.4381 16.3376 79.3501 15.874 79.3501 15.4039C79.3501 14.9338 79.4338 14.4851 79.6011 14.0322C79.7685 13.5771 80.0324 13.1757 80.395 12.8237C80.7576 12.4738 81.2147 12.1883 81.7661 11.9693C82.3175 11.7504 82.9848 11.6409 83.768 11.6409L83.7723 11.6366Z" fill="#DBA751"/>
<path d="M52.7957 25.5316C52.7957 26.1648 52.6927 26.783 52.4846 27.3884C52.2764 27.9937 51.9761 28.5346 51.5791 29.0112C51.1822 29.4899 50.7015 29.8806 50.1372 30.1854C49.5729 30.4902 48.9292 30.649 48.204 30.6598V30.8315H51.7765L51.4482 33.2314C50.4119 33.2314 49.4699 33.0296 48.6181 32.6282C47.7663 32.2246 47.0647 31.6214 46.5132 30.8143C45.788 30.6984 45.155 30.4752 44.6143 30.1403C44.0736 29.8076 43.623 29.3976 43.2604 28.9146C42.8978 28.4316 42.6274 27.8992 42.4494 27.3175C42.2713 26.7358 42.1812 26.1412 42.1812 25.5294C42.1812 24.8618 42.2906 24.205 42.5094 23.561C42.7283 22.917 43.0587 22.3417 43.5007 21.8351C43.9427 21.3285 44.4963 20.9228 45.1572 20.618C45.818 20.3132 46.5926 20.1608 47.4788 20.1608C48.3649 20.1608 49.1374 20.3132 49.8004 20.618C50.4612 20.9228 51.0148 21.3285 51.4568 21.8351C51.8988 22.3417 52.2335 22.917 52.4588 23.561C52.6841 24.205 52.7957 24.8618 52.7957 25.5294V25.5316ZM45.0649 25.523C45.11 26.1111 45.2065 26.6843 45.3503 27.2445C45.494 27.8048 45.6829 28.3028 45.9189 28.7407C46.1549 29.1786 46.436 29.5307 46.7643 29.7968C47.0925 30.063 47.4573 30.194 47.8607 30.194C48.2641 30.194 48.6052 30.0609 48.8885 29.7968C49.1695 29.5307 49.3948 29.1808 49.5622 28.7407C49.7296 28.3028 49.8411 27.8027 49.8991 27.2445C49.957 26.6864 49.9613 26.1111 49.9162 25.523C49.8712 24.9348 49.7746 24.3617 49.6309 23.8014C49.4871 23.2411 49.2961 22.7431 49.0623 22.3052C48.8262 21.8673 48.5452 21.5153 48.2169 21.2491C47.8886 20.9829 47.5238 20.852 47.1204 20.852C46.7171 20.852 46.3759 20.9851 46.0927 21.2491C45.8116 21.5153 45.5863 21.8652 45.4189 22.3052C45.2516 22.7431 45.14 23.2411 45.0821 23.8014C45.0241 24.3617 45.0198 24.9348 45.0649 25.523Z" fill="#DBA751"/>
<path d="M57.4366 30.1918C57.5975 30.1918 57.7348 30.1253 57.8507 29.9944C57.9665 29.8613 58.061 29.696 58.136 29.4942C58.2111 29.2924 58.2648 29.0735 58.2991 28.8373C58.3334 28.6012 58.3506 28.3801 58.3506 28.1719L58.3678 25.3921C58.3678 25.1388 58.3528 24.8769 58.3249 24.6064C58.297 24.3359 58.2176 24.0805 58.091 23.8379L61.421 23.3893V29.2774C61.421 29.5307 61.4489 29.799 61.5069 30.0802C61.5648 30.3614 61.6614 30.6126 61.8008 30.8315H59.0394V28.1719H58.8505C58.8398 28.6892 58.769 29.1207 58.6424 29.4663C58.5158 29.8119 58.3485 30.0867 58.1425 30.2949C57.9365 30.501 57.6919 30.6512 57.4087 30.7435C57.1276 30.8358 56.8251 30.8809 56.5032 30.8809C56.1578 30.8809 55.8166 30.8315 55.4754 30.7349C55.1364 30.6362 54.8275 30.4816 54.5528 30.2691C54.276 30.0566 54.055 29.7797 53.8877 29.4405C53.7203 29.1014 53.6366 28.6892 53.6366 28.2062V25.3921C53.6366 25.1388 53.6087 24.8747 53.5508 24.5978C53.4929 24.3209 53.3963 24.0676 53.2568 23.8379L56.692 23.3893V28.9146C56.692 29.3869 56.7671 29.7175 56.9173 29.9064C57.0675 30.0953 57.2392 30.1918 57.4344 30.1918H57.4366Z" fill="#DBA751"/>
<path d="M65.9701 24.7115C65.8263 25.0399 65.7534 25.4521 65.7534 25.9458V29.2773C65.7534 29.5306 65.7684 29.7925 65.7963 30.063C65.8242 30.3335 65.9035 30.5889 66.0301 30.8315H62.3203C62.4576 30.6125 62.5563 30.3635 62.6143 30.0802C62.6722 29.799 62.7001 29.5306 62.7001 29.2773V25.392C62.7001 25.1387 62.6722 24.8747 62.6143 24.5977C62.5563 24.3208 62.4598 24.0675 62.3203 23.8379L65.0818 23.3892V26.0488H65.2706C65.2706 25.5423 65.3242 25.1172 65.4336 24.7716C65.5431 24.426 65.6847 24.147 65.8563 23.9345C66.028 23.7219 66.2211 23.5695 66.4335 23.4772C66.6459 23.3849 66.8627 23.3398 67.0815 23.3398C67.4141 23.3398 67.7145 23.3484 67.9784 23.3656C68.2423 23.3828 68.5427 23.3914 68.8753 23.3914L68.547 25.8084L66.4764 24.031C66.2812 24.1577 66.1117 24.3852 65.9679 24.7137L65.9701 24.7115Z" fill="#DBA751"/>
<path d="M73.2974 23.3378C73.7008 23.3378 74.0977 23.4065 74.4882 23.546C74.8788 23.6834 75.2263 23.8809 75.5332 24.132C75.8379 24.3853 76.0846 24.6923 76.2756 25.0551C76.4644 25.4178 76.5609 25.83 76.5609 26.2894V29.2774C76.5609 29.5307 76.5888 29.799 76.6468 30.0803C76.7047 30.3615 76.8013 30.6126 76.9407 30.8316H74.0763V28.1719H73.9046C73.8703 28.5519 73.8016 28.9082 73.6965 29.2431C73.5935 29.5779 73.4433 29.8656 73.2481 30.106C73.0528 30.3486 72.8061 30.5375 72.5057 30.6749C72.2074 30.8122 71.8448 30.8809 71.4178 30.8809C71.096 30.8809 70.7741 30.8444 70.4523 30.7693C70.1304 30.6942 69.8429 30.5761 69.5897 30.4151C69.3365 30.2541 69.1327 30.0481 68.9761 29.7926C68.8216 29.5393 68.7422 29.2409 68.7422 28.8953C68.7422 28.5046 68.8216 28.1698 68.9846 27.8929C69.1456 27.616 69.358 27.3863 69.624 27.2017C69.888 27.0171 70.1905 26.8711 70.5295 26.7616C70.8685 26.6521 71.2161 26.5684 71.5744 26.5105C71.9306 26.4525 72.2847 26.416 72.6365 26.3988C72.9863 26.3817 73.3017 26.3731 73.5763 26.3731C73.5763 25.7634 73.439 25.259 73.1622 24.8619C72.8854 24.4648 72.5357 24.1921 72.1087 24.0419L69.5017 25.8021V23.385C70.1583 23.385 70.7934 23.3764 71.4092 23.3593C72.025 23.3421 72.6537 23.3335 73.2995 23.3335L73.2974 23.3378ZM73.5742 26.8604C73.3317 26.8604 73.0914 26.914 72.849 27.0235C72.6065 27.133 72.3876 27.2918 72.1924 27.4979C71.9971 27.7061 71.8384 27.9551 71.7182 28.2492C71.598 28.5433 71.538 28.8674 71.538 29.2238C71.538 29.4878 71.6045 29.7153 71.7354 29.9064C71.8684 30.0953 72.0315 30.1919 72.2267 30.1919C72.525 30.1919 72.7653 30.0588 72.9434 29.7948C73.1215 29.5307 73.2566 29.2195 73.3489 28.8631C73.4412 28.5068 73.5012 28.1419 73.5291 27.7662C73.557 27.3927 73.5721 27.09 73.5721 26.8604H73.5742Z" fill="#DBA751"/>
<path d="M81.7706 24.0289C81.4359 24.0289 81.1848 24.2264 81.011 24.6235C80.8394 25.0206 80.7514 25.495 80.7514 26.0489V29.2773C80.7514 29.5306 80.7664 29.7925 80.7943 30.063C80.8222 30.3335 80.9016 30.5889 81.0282 30.8315H77.3184C77.4557 30.6125 77.5544 30.3635 77.6123 30.0802C77.6702 29.799 77.6981 29.5306 77.6981 29.2773V25.392C77.6981 25.1387 77.6702 24.8747 77.6123 24.5978C77.5544 24.3208 77.4578 24.0675 77.3184 23.8379L80.1313 23.3892V26.0489H80.3201C80.3201 25.5079 80.3823 25.0593 80.5089 24.7029C80.6355 24.3466 80.8029 24.0633 81.0089 23.8572C81.2149 23.6511 81.4552 23.503 81.7255 23.4171C81.9959 23.3313 82.2748 23.2883 82.5623 23.2883C82.9185 23.2883 83.2704 23.3313 83.6158 23.4171C83.9613 23.503 84.2724 23.6511 84.5471 23.8572C84.8238 24.0654 85.047 24.3402 85.2208 24.6858C85.3924 25.0314 85.4804 25.4628 85.4804 25.9802V29.2773C85.4804 29.5306 85.5083 29.799 85.5662 30.0802C85.6242 30.3614 85.7207 30.6125 85.8602 30.8315H82.7361C82.6095 30.5889 82.5259 30.3335 82.4851 30.063C82.4443 29.7925 82.425 29.5306 82.425 29.2773V25.4092C82.425 24.4883 82.2062 24.0289 81.7684 24.0289H81.7706Z" fill="#DBA751"/>
</svg>
